<svg xmlns="http://www.w3.org/2000/svg" viewBox="0 0 1600 900" width="1600" height="900">
  <rect width="1600" height="900" fill="#fbfaf8"/>
  <text x="80" y="92" font-family="'Iowan Old Style', 'Palatino Linotype', Palatino, Georgia, serif" font-size="54" fill="#14181f">Darker means more… usually</text><text x="80" y="138" font-family="'Avenir Next', Avenir, 'Segoe UI', Arial, sans-serif" font-size="24" fill="#5a6572" opacity="1">Same data, same scale (darker = more hires), two backgrounds</text>
  <rect x="80" y="180" width="680" height="520" fill="#ffffff"/>
  <text x="110" y="236" font-family="'Iowan Old Style', 'Palatino Linotype', Palatino, Georgia, serif" font-size="32" fill="#14181f">On white</text><rect x="150" y="270" width="43" height="43" fill="#a0cbe2"/><rect x="196" y="270" width="43" height="43" fill="#68acd5"/><rect x="242" y="270" width="43" height="43" fill="#57a0ce"/><rect x="288" y="270" width="43" height="43" fill="#67abd4"/><rect x="334" y="270" width="43" height="43" fill="#58a1cf"/><rect x="380" y="270" width="43" height="43" fill="#2373b6"/><rect x="426" y="270" width="43" height="43" fill="#2b7bba"/><rect x="472" y="270" width="43" height="43" fill="#2b7bba"/><rect x="518" y="270" width="43" height="43" fill="#3b8bc3"/><rect x="564" y="270" width="43" height="43" fill="#4393c7"/><rect x="610" y="270" width="43" height="43" fill="#4997c9"/><rect x="656" y="270" width="43" height="43" fill="#98c7e0"/><rect x="150" y="316" width="43" height="43" fill="#90c2de"/><rect x="196" y="316" width="43" height="43" fill="#58a1cf"/><rect x="242" y="316" width="43" height="43" fill="#6aadd6"/><rect x="288" y="316" width="43" height="43" fill="#4e9acb"/><rect x="334" y="316" width="43" height="43" fill="#509ccb"/><rect x="380" y="316" width="43" height="43" fill="#0e509c"/><rect x="426" y="316" width="43" height="43" fill="#1861a9"/><rect x="472" y="316" width="43" height="43" fill="#1358a2"/><rect x="518" y="316" width="43" height="43" fill="#175fa8"/><rect x="564" y="316" width="43" height="43" fill="#2a7aba"/><rect x="610" y="316" width="43" height="43" fill="#3d8dc3"/><rect x="656" y="316" width="43" height="43" fill="#8cc0dd"/><rect x="150" y="362" width="43" height="43" fill="#6eafd7"/><rect x="196" y="362" width="43" height="43" fill="#6cafd6"/><rect x="242" y="362" width="43" height="43" fill="#3c8cc3"/><rect x="288" y="362" width="43" height="43" fill="#4695c8"/><rect x="334" y="362" width="43" height="43" fill="#2474b7"/><rect x="380" y="362" width="43" height="43" fill="#094896"/><rect x="426" y="362" width="43" height="43" fill="#084594"/><rect x="472" y="362" width="43" height="43" fill="#1155a0"/><rect x="518" y="362" width="43" height="43" fill="#1d69af"/><rect x="564" y="362" width="43" height="43" fill="#145aa4"/><rect x="610" y="362" width="43" height="43" fill="#3484bf"/><rect x="656" y="362" width="43" height="43" fill="#59a2cf"/><rect x="150" y="408" width="43" height="43" fill="#82bbdb"/><rect x="196" y="408" width="43" height="43" fill="#8ec1de"/><rect x="242" y="408" width="43" height="43" fill="#519ccc"/><rect x="288" y="408" width="43" height="43" fill="#4493c7"/><rect x="334" y="408" width="43" height="43" fill="#1e6cb1"/><rect x="380" y="408" width="43" height="43" fill="#0d4e9b"/><rect x="426" y="408" width="43" height="43" fill="#0d4e9b"/><rect x="472" y="408" width="43" height="43" fill="#1f6eb3"/><rect x="518" y="408" width="43" height="43" fill="#3080bd"/><rect x="564" y="408" width="43" height="43" fill="#1155a0"/><rect x="610" y="408" width="43" height="43" fill="#3080bd"/><rect x="656" y="408" width="43" height="43" fill="#9fcae1"/><rect x="150" y="454" width="43" height="43" fill="#96c6df"/><rect x="196" y="454" width="43" height="43" fill="#86bddc"/><rect x="242" y="454" width="43" height="43" fill="#87bedc"/><rect x="288" y="454" width="43" height="43" fill="#57a1ce"/><rect x="334" y="454" width="43" height="43" fill="#3d8dc4"/><rect x="380" y="454" width="43" height="43" fill="#2474b7"/><rect x="426" y="454" width="43" height="43" fill="#3989c1"/><rect x="472" y="454" width="43" height="43" fill="#2373b6"/><rect x="518" y="454" width="43" height="43" fill="#4594c7"/><rect x="564" y="454" width="43" height="43" fill="#2f7fbc"/><rect x="610" y="454" width="43" height="43" fill="#4594c7"/><rect x="656" y="454" width="43" height="43" fill="#a8cee5"/><rect x="150" y="500" width="43" height="43" fill="#c2d9ee"/><rect x="196" y="500" width="43" height="43" fill="#abd0e6"/><rect x="242" y="500" width="43" height="43" fill="#8dc1dd"/><rect x="288" y="500" width="43" height="43" fill="#66aad4"/><rect x="334" y="500" width="43" height="43" fill="#2e7ebc"/><rect x="380" y="500" width="43" height="43" fill="#4795c8"/><rect x="426" y="500" width="43" height="43" fill="#4493c7"/><rect x="472" y="500" width="43" height="43" fill="#4d99ca"/><rect x="518" y="500" width="43" height="43" fill="#3383bf"/><rect x="564" y="500" width="43" height="43" fill="#549fcd"/><rect x="610" y="500" width="43" height="43" fill="#83bbdb"/><rect x="656" y="500" width="43" height="43" fill="#e3ecfa"/><rect x="150" y="546" width="43" height="43" fill="#d9e6f6"/><rect x="196" y="546" width="43" height="43" fill="#c7dcef"/><rect x="242" y="546" width="43" height="43" fill="#c7dbef"/><rect x="288" y="546" width="43" height="43" fill="#9fcae1"/><rect x="334" y="546" width="43" height="43" fill="#3585bf"/><rect x="380" y="546" width="43" height="43" fill="#3181bd"/><rect x="426" y="546" width="43" height="43" fill="#4393c6"/><rect x="472" y="546" width="43" height="43" fill="#3c8cc3"/><rect x="518" y="546" width="43" height="43" fill="#6dafd6"/><rect x="564" y="546" width="43" height="43" fill="#87bddc"/><rect x="610" y="546" width="43" height="43" fill="#a6cde4"/><rect x="656" y="546" width="43" height="43" fill="#eff3ff"/><text x="150" y="640" font-family="'Avenir Next', Avenir, 'Segoe UI', Arial, sans-serif" font-size="20" fill="#14181f">Which months were busiest?</text>
  <rect x="840" y="180" width="680" height="520" fill="#111111"/>
  <text x="870" y="236" font-family="'Iowan Old Style', 'Palatino Linotype', Palatino, Georgia, serif" font-size="32" fill="#ffffff">On black</text><rect x="910" y="270" width="43" height="43" fill="#a0cbe2"/><rect x="956" y="270" width="43" height="43" fill="#68acd5"/><rect x="1002" y="270" width="43" height="43" fill="#57a0ce"/><rect x="1048" y="270" width="43" height="43" fill="#67abd4"/><rect x="1094" y="270" width="43" height="43" fill="#58a1cf"/><rect x="1140" y="270" width="43" height="43" fill="#2373b6"/><rect x="1186" y="270" width="43" height="43" fill="#2b7bba"/><rect x="1232" y="270" width="43" height="43" fill="#2b7bba"/><rect x="1278" y="270" width="43" height="43" fill="#3b8bc3"/><rect x="1324" y="270" width="43" height="43" fill="#4393c7"/><rect x="1370" y="270" width="43" height="43" fill="#4997c9"/><rect x="1416" y="270" width="43" height="43" fill="#98c7e0"/><rect x="910" y="316" width="43" height="43" fill="#90c2de"/><rect x="956" y="316" width="43" height="43" fill="#58a1cf"/><rect x="1002" y="316" width="43" height="43" fill="#6aadd6"/><rect x="1048" y="316" width="43" height="43" fill="#4e9acb"/><rect x="1094" y="316" width="43" height="43" fill="#509ccb"/><rect x="1140" y="316" width="43" height="43" fill="#0e509c"/><rect x="1186" y="316" width="43" height="43" fill="#1861a9"/><rect x="1232" y="316" width="43" height="43" fill="#1358a2"/><rect x="1278" y="316" width="43" height="43" fill="#175fa8"/><rect x="1324" y="316" width="43" height="43" fill="#2a7aba"/><rect x="1370" y="316" width="43" height="43" fill="#3d8dc3"/><rect x="1416" y="316" width="43" height="43" fill="#8cc0dd"/><rect x="910" y="362" width="43" height="43" fill="#6eafd7"/><rect x="956" y="362" width="43" height="43" fill="#6cafd6"/><rect x="1002" y="362" width="43" height="43" fill="#3c8cc3"/><rect x="1048" y="362" width="43" height="43" fill="#4695c8"/><rect x="1094" y="362" width="43" height="43" fill="#2474b7"/><rect x="1140" y="362" width="43" height="43" fill="#094896"/><rect x="1186" y="362" width="43" height="43" fill="#084594"/><rect x="1232" y="362" width="43" height="43" fill="#1155a0"/><rect x="1278" y="362" width="43" height="43" fill="#1d69af"/><rect x="1324" y="362" width="43" height="43" fill="#145aa4"/><rect x="1370" y="362" width="43" height="43" fill="#3484bf"/><rect x="1416" y="362" width="43" height="43" fill="#59a2cf"/><rect x="910" y="408" width="43" height="43" fill="#82bbdb"/><rect x="956" y="408" width="43" height="43" fill="#8ec1de"/><rect x="1002" y="408" width="43" height="43" fill="#519ccc"/><rect x="1048" y="408" width="43" height="43" fill="#4493c7"/><rect x="1094" y="408" width="43" height="43" fill="#1e6cb1"/><rect x="1140" y="408" width="43" height="43" fill="#0d4e9b"/><rect x="1186" y="408" width="43" height="43" fill="#0d4e9b"/><rect x="1232" y="408" width="43" height="43" fill="#1f6eb3"/><rect x="1278" y="408" width="43" height="43" fill="#3080bd"/><rect x="1324" y="408" width="43" height="43" fill="#1155a0"/><rect x="1370" y="408" width="43" height="43" fill="#3080bd"/><rect x="1416" y="408" width="43" height="43" fill="#9fcae1"/><rect x="910" y="454" width="43" height="43" fill="#96c6df"/><rect x="956" y="454" width="43" height="43" fill="#86bddc"/><rect x="1002" y="454" width="43" height="43" fill="#87bedc"/><rect x="1048" y="454" width="43" height="43" fill="#57a1ce"/><rect x="1094" y="454" width="43" height="43" fill="#3d8dc4"/><rect x="1140" y="454" width="43" height="43" fill="#2474b7"/><rect x="1186" y="454" width="43" height="43" fill="#3989c1"/><rect x="1232" y="454" width="43" height="43" fill="#2373b6"/><rect x="1278" y="454" width="43" height="43" fill="#4594c7"/><rect x="1324" y="454" width="43" height="43" fill="#2f7fbc"/><rect x="1370" y="454" width="43" height="43" fill="#4594c7"/><rect x="1416" y="454" width="43" height="43" fill="#a8cee5"/><rect x="910" y="500" width="43" height="43" fill="#c2d9ee"/><rect x="956" y="500" width="43" height="43" fill="#abd0e6"/><rect x="1002" y="500" width="43" height="43" fill="#8dc1dd"/><rect x="1048" y="500" width="43" height="43" fill="#66aad4"/><rect x="1094" y="500" width="43" height="43" fill="#2e7ebc"/><rect x="1140" y="500" width="43" height="43" fill="#4795c8"/><rect x="1186" y="500" width="43" height="43" fill="#4493c7"/><rect x="1232" y="500" width="43" height="43" fill="#4d99ca"/><rect x="1278" y="500" width="43" height="43" fill="#3383bf"/><rect x="1324" y="500" width="43" height="43" fill="#549fcd"/><rect x="1370" y="500" width="43" height="43" fill="#83bbdb"/><rect x="1416" y="500" width="43" height="43" fill="#e3ecfa"/><rect x="910" y="546" width="43" height="43" fill="#d9e6f6"/><rect x="956" y="546" width="43" height="43" fill="#c7dcef"/><rect x="1002" y="546" width="43" height="43" fill="#c7dbef"/><rect x="1048" y="546" width="43" height="43" fill="#9fcae1"/><rect x="1094" y="546" width="43" height="43" fill="#3585bf"/><rect x="1140" y="546" width="43" height="43" fill="#3181bd"/><rect x="1186" y="546" width="43" height="43" fill="#4393c6"/><rect x="1232" y="546" width="43" height="43" fill="#3c8cc3"/><rect x="1278" y="546" width="43" height="43" fill="#6dafd6"/><rect x="1324" y="546" width="43" height="43" fill="#87bddc"/><rect x="1370" y="546" width="43" height="43" fill="#a6cde4"/><rect x="1416" y="546" width="43" height="43" fill="#eff3ff"/><text x="910" y="640" font-family="'Avenir Next', Avenir, 'Segoe UI', Arial, sans-serif" font-size="20" fill="#ffffff">Which months were busiest?</text>
  <text x="80" y="780" font-family="'Avenir Next', Avenir, 'Segoe UI', Arial, sans-serif" font-size="24" fill="#14181f">People expect darker to mean more, but on a dark background the expectation can flip (Schloss et al., 2019).</text>
  <text x="80" y="818" font-family="'Avenir Next', Avenir, 'Segoe UI', Arial, sans-serif" font-size="24" fill="#14181f">The right direction for your scale depends on your background.</text>
</svg>
