<svg xmlns="http://www.w3.org/2000/svg" viewBox="0 0 1600 900" width="1600" height="900">
  <rect width="1600" height="900" fill="#fbfaf8"/>
  <text x="80" y="92" font-family="'Iowan Old Style', 'Palatino Linotype', Palatino, Georgia, serif" font-size="54" fill="#14181f">The rainbow debate</text><text x="80" y="138" font-family="'Avenir Next', Avenir, 'Segoe UI', Arial, sans-serif" font-size="24" fill="#5a6572" opacity="1">TfL bike hires per day, 2024, three ways. The line under each is its lightness, low to high</text>
  <text x="80" y="200" font-family="'Iowan Old Style', 'Palatino Linotype', Palatino, Georgia, serif" font-size="34" fill="#14181f">Jet (rainbow)</text>
  <rect x="80" y="220" width="34" height="28" fill="#00ceff"/><rect x="116" y="220" width="34" height="28" fill="#8cff73"/><rect x="152" y="220" width="34" height="28" fill="#d4ff2b"/><rect x="188" y="220" width="34" height="28" fill="#90ff6f"/><rect x="224" y="220" width="34" height="28" fill="#cdff32"/><rect x="260" y="220" width="34" height="28" fill="#ff3700"/><rect x="296" y="220" width="34" height="28" fill="#ff6000"/><rect x="332" y="220" width="34" height="28" fill="#ff5f00"/><rect x="368" y="220" width="34" height="28" fill="#ffb300"/><rect x="404" y="220" width="34" height="28" fill="#ffda00"/><rect x="440" y="220" width="34" height="28" fill="#fff200"/><rect x="476" y="220" width="34" height="28" fill="#00e9ff"/><rect x="80" y="250" width="34" height="28" fill="#05fffa"/><rect x="116" y="250" width="34" height="28" fill="#cfff30"/><rect x="152" y="250" width="34" height="28" fill="#84ff7b"/><rect x="188" y="250" width="34" height="28" fill="#f7ff08"/><rect x="224" y="250" width="34" height="28" fill="#efff10"/><rect x="260" y="250" width="34" height="28" fill="#a90000"/><rect x="296" y="250" width="34" height="28" fill="#eb0000"/><rect x="332" y="250" width="34" height="28" fill="#c90000"/><rect x="368" y="250" width="34" height="28" fill="#e50000"/><rect x="404" y="250" width="34" height="28" fill="#ff5a00"/><rect x="440" y="250" width="34" height="28" fill="#ffba00"/><rect x="476" y="250" width="34" height="28" fill="#12ffed"/><rect x="80" y="280" width="34" height="28" fill="#76ff89"/><rect x="116" y="280" width="34" height="28" fill="#7cff83"/><rect x="152" y="280" width="34" height="28" fill="#ffb600"/><rect x="188" y="280" width="34" height="28" fill="#ffe600"/><rect x="224" y="280" width="34" height="28" fill="#ff3a00"/><rect x="260" y="280" width="34" height="28" fill="#890000"/><rect x="296" y="280" width="34" height="28" fill="#800000"/><rect x="332" y="280" width="34" height="28" fill="#bc0000"/><rect x="368" y="280" width="34" height="28" fill="#ff0d00"/><rect x="404" y="280" width="34" height="28" fill="#d10000"/><rect x="440" y="280" width="34" height="28" fill="#ff8d00"/><rect x="476" y="280" width="34" height="28" fill="#cbff34"/><rect x="80" y="310" width="34" height="28" fill="#32ffcd"/><rect x="116" y="310" width="34" height="28" fill="#0afff5"/><rect x="152" y="310" width="34" height="28" fill="#ecff13"/><rect x="188" y="310" width="34" height="28" fill="#ffdb00"/><rect x="224" y="310" width="34" height="28" fill="#ff1600"/><rect x="260" y="310" width="34" height="28" fill="#a40000"/><rect x="296" y="310" width="34" height="28" fill="#a20000"/><rect x="332" y="310" width="34" height="28" fill="#ff1e00"/><rect x="368" y="310" width="34" height="28" fill="#ff7900"/><rect x="404" y="310" width="34" height="28" fill="#bd0000"/><rect x="440" y="310" width="34" height="28" fill="#ff7800"/><rect x="476" y="310" width="34" height="28" fill="#00d2ff"/><rect x="80" y="340" width="34" height="28" fill="#00f0ff"/><rect x="116" y="340" width="34" height="28" fill="#25ffda"/><rect x="152" y="340" width="34" height="28" fill="#21ffde"/><rect x="188" y="340" width="34" height="28" fill="#d1ff2e"/><rect x="224" y="340" width="34" height="28" fill="#ffbc00"/><rect x="260" y="340" width="34" height="28" fill="#ff3a00"/><rect x="296" y="340" width="34" height="28" fill="#ffa500"/><rect x="332" y="340" width="34" height="28" fill="#ff3600"/><rect x="368" y="340" width="34" height="28" fill="#ffe200"/><rect x="404" y="340" width="34" height="28" fill="#ff7200"/><rect x="440" y="340" width="34" height="28" fill="#ffe200"/><rect x="476" y="340" width="34" height="28" fill="#00a8ff"/><rect x="80" y="370" width="34" height="28" fill="#003cff"/><rect x="116" y="370" width="34" height="28" fill="#009dff"/><rect x="152" y="370" width="34" height="28" fill="#0dfff2"/><rect x="188" y="370" width="34" height="28" fill="#96ff69"/><rect x="224" y="370" width="34" height="28" fill="#ff6c00"/><rect x="260" y="370" width="34" height="28" fill="#ffe700"/><rect x="296" y="370" width="34" height="28" fill="#ffdb00"/><rect x="332" y="370" width="34" height="28" fill="#fcff03"/><rect x="368" y="370" width="34" height="28" fill="#ff8a00"/><rect x="404" y="370" width="34" height="28" fill="#ddff22"/><rect x="440" y="370" width="34" height="28" fill="#2fffd0"/><rect x="476" y="370" width="34" height="28" fill="#0000b3"/><rect x="80" y="400" width="34" height="28" fill="#0000db"/><rect x="116" y="400" width="34" height="28" fill="#0025ff"/><rect x="152" y="400" width="34" height="28" fill="#0028ff"/><rect x="188" y="400" width="34" height="28" fill="#00d1ff"/><rect x="224" y="400" width="34" height="28" fill="#ff9100"/><rect x="260" y="400" width="34" height="28" fill="#ff7b00"/><rect x="296" y="400" width="34" height="28" fill="#ffd800"/><rect x="332" y="400" width="34" height="28" fill="#ffb800"/><rect x="368" y="400" width="34" height="28" fill="#79ff86"/><rect x="404" y="400" width="34" height="28" fill="#21ffde"/><rect x="440" y="400" width="34" height="28" fill="#00b3ff"/><rect x="476" y="400" width="34" height="28" fill="#000080"/>
  <line x1="80" y1="560" x2="510" y2="560" stroke="#5a6572" stroke-opacity=".4"/><line x1="80" y1="450" x2="510" y2="450" stroke="#5a6572" stroke-opacity=".2"/>
  <polyline points="80.0,545.7 90.8,541.3 101.5,536.9 112.3,532.5 123.0,528.1 133.8,524.8 144.5,522.6 155.3,519.3 166.0,513.8 176.8,507.2 187.5,499.5 198.3,491.8 209.0,484.1 219.8,476.4 230.5,467.6 241.3,459.9 252.0,459.9 262.8,461.0 273.5,461.0 284.3,461.0 295.0,459.9 305.8,459.9 316.5,458.8 327.3,456.6 338.0,455.5 348.8,453.3 359.5,461.0 370.3,467.6 381.0,474.2 391.8,480.8 402.5,486.3 413.3,491.8 424.0,496.2 434.8,498.4 445.5,500.6 456.3,501.7 467.0,507.2 477.8,512.7 488.5,519.3 499.3,525.9 510.0,531.4" fill="none" stroke="#14181f" stroke-width="3"/>
  <text x="514" y="456" font-family="'Avenir Next', Avenir, 'Segoe UI', Arial, sans-serif" font-size="14" fill="#5a6572">L* 100</text>
  <rect x="80" y="590" width="10.5" height="22" fill="#000080"/><rect x="90" y="590" width="10.5" height="22" fill="#000098"/><rect x="100" y="590" width="10.5" height="22" fill="#0000b0"/><rect x="110" y="590" width="10.5" height="22" fill="#0000c8"/><rect x="120" y="590" width="10.5" height="22" fill="#0000e1"/><rect x="130" y="590" width="10.5" height="22" fill="#0000f9"/><rect x="140" y="590" width="10.5" height="22" fill="#0012ff"/><rect x="150" y="590" width="10.5" height="22" fill="#002aff"/><rect x="160" y="590" width="10.5" height="22" fill="#0043ff"/><rect x="170" y="590" width="10.5" height="22" fill="#005bff"/><rect x="180" y="590" width="10.5" height="22" fill="#0073ff"/><rect x="190" y="590" width="10.5" height="22" fill="#008cff"/><rect x="200" y="590" width="10.5" height="22" fill="#00a4ff"/><rect x="210" y="590" width="10.5" height="22" fill="#00bcff"/><rect x="220" y="590" width="10.5" height="22" fill="#00d4ff"/><rect x="230" y="590" width="10.5" height="22" fill="#00edff"/><rect x="240" y="590" width="10.5" height="22" fill="#06fff9"/><rect x="250" y="590" width="10.5" height="22" fill="#1effe1"/><rect x="260" y="590" width="10.5" height="22" fill="#37ffc8"/><rect x="270" y="590" width="10.5" height="22" fill="#4fffb0"/><rect x="280" y="590" width="10.5" height="22" fill="#67ff98"/><rect x="290" y="590" width="10.5" height="22" fill="#80ff80"/><rect x="300" y="590" width="10.5" height="22" fill="#98ff67"/><rect x="310" y="590" width="10.5" height="22" fill="#b0ff4f"/><rect x="320" y="590" width="10.5" height="22" fill="#c8ff37"/><rect x="330" y="590" width="10.5" height="22" fill="#e1ff1e"/><rect x="340" y="590" width="10.5" height="22" fill="#f9ff06"/><rect x="350" y="590" width="10.5" height="22" fill="#ffed00"/><rect x="360" y="590" width="10.5" height="22" fill="#ffd500"/><rect x="370" y="590" width="10.5" height="22" fill="#ffbc00"/><rect x="380" y="590" width="10.5" height="22" fill="#ffa400"/><rect x="390" y="590" width="10.5" height="22" fill="#ff8c00"/><rect x="400" y="590" width="10.5" height="22" fill="#ff7300"/><rect x="410" y="590" width="10.5" height="22" fill="#ff5b00"/><rect x="420" y="590" width="10.5" height="22" fill="#ff4300"/><rect x="430" y="590" width="10.5" height="22" fill="#ff2a00"/><rect x="440" y="590" width="10.5" height="22" fill="#ff1200"/><rect x="450" y="590" width="10.5" height="22" fill="#f90000"/><rect x="460" y="590" width="10.5" height="22" fill="#e10000"/><rect x="470" y="590" width="10.5" height="22" fill="#c80000"/><rect x="480" y="590" width="10.5" height="22" fill="#b00000"/><rect x="490" y="590" width="10.5" height="22" fill="#980000"/><rect x="500" y="590" width="10.5" height="22" fill="#800000"/>
  <text x="80" y="660" font-family="'Avenir Next', Avenir, 'Segoe UI', Arial, sans-serif" font-size="20" fill="#14181f"><tspan font-weight="700" fill="#c8102e">✗</tspan>  False bands at yellow and cyan;</text>
  <text x="106" y="688" font-family="'Avenir Next', Avenir, 'Segoe UI', Arial, sans-serif" font-size="20" fill="#14181f">lightness goes up, then down</text>
  <text x="570" y="200" font-family="'Iowan Old Style', 'Palatino Linotype', Palatino, Georgia, serif" font-size="34" fill="#14181f">Viridis</text>
  <rect x="570" y="220" width="34" height="28" fill="#32668e"/><rect x="606" y="220" width="34" height="28" fill="#22938b"/><rect x="642" y="220" width="34" height="28" fill="#24a485"/><rect x="678" y="220" width="34" height="28" fill="#21948b"/><rect x="714" y="220" width="34" height="28" fill="#23a286"/><rect x="750" y="220" width="34" height="28" fill="#8ad446"/><rect x="786" y="220" width="34" height="28" fill="#70ce57"/><rect x="822" y="220" width="34" height="28" fill="#71cf56"/><rect x="858" y="220" width="34" height="28" fill="#46be6f"/><rect x="894" y="220" width="34" height="28" fill="#34b67a"/><rect x="930" y="220" width="34" height="28" fill="#2fb07d"/><rect x="966" y="220" width="34" height="28" fill="#2f6d8e"/><rect x="570" y="250" width="34" height="28" fill="#2c738e"/><rect x="606" y="250" width="34" height="28" fill="#23a386"/><rect x="642" y="250" width="34" height="28" fill="#22918b"/><rect x="678" y="250" width="34" height="28" fill="#2bac80"/><rect x="714" y="250" width="34" height="28" fill="#2aaa81"/><rect x="750" y="250" width="34" height="28" fill="#e3e427"/><rect x="786" y="250" width="34" height="28" fill="#b8de2b"/><rect x="822" y="250" width="34" height="28" fill="#cfe129"/><rect x="858" y="250" width="34" height="28" fill="#bddf2a"/><rect x="894" y="250" width="34" height="28" fill="#74cf54"/><rect x="930" y="250" width="34" height="28" fill="#42bc71"/><rect x="966" y="250" width="34" height="28" fill="#2b768e"/><rect x="570" y="280" width="34" height="28" fill="#238e8c"/><rect x="606" y="280" width="34" height="28" fill="#238f8c"/><rect x="642" y="280" width="34" height="28" fill="#44bd70"/><rect x="678" y="280" width="34" height="28" fill="#32b37b"/><rect x="714" y="280" width="34" height="28" fill="#88d448"/><rect x="750" y="280" width="34" height="28" fill="#f7e626"/><rect x="786" y="280" width="34" height="28" fill="#fde725"/><rect x="822" y="280" width="34" height="28" fill="#d6e228"/><rect x="858" y="280" width="34" height="28" fill="#a4da36"/><rect x="894" y="280" width="34" height="28" fill="#c9e129"/><rect x="930" y="280" width="34" height="28" fill="#59c664"/><rect x="966" y="280" width="34" height="28" fill="#23a286"/><rect x="570" y="310" width="34" height="28" fill="#287d8e"/><rect x="606" y="310" width="34" height="28" fill="#2c748e"/><rect x="642" y="310" width="34" height="28" fill="#29aa82"/><rect x="678" y="310" width="34" height="28" fill="#34b67a"/><rect x="714" y="310" width="34" height="28" fill="#9ed939"/><rect x="750" y="310" width="34" height="28" fill="#e6e427"/><rect x="786" y="310" width="34" height="28" fill="#e7e427"/><rect x="822" y="310" width="34" height="28" fill="#99d83d"/><rect x="858" y="310" width="34" height="28" fill="#63ca5e"/><rect x="894" y="310" width="34" height="28" fill="#d6e228"/><rect x="930" y="310" width="34" height="28" fill="#63ca5e"/><rect x="966" y="310" width="34" height="28" fill="#31678e"/><rect x="570" y="340" width="34" height="28" fill="#2e6e8e"/><rect x="606" y="340" width="34" height="28" fill="#297a8e"/><rect x="642" y="340" width="34" height="28" fill="#2a798e"/><rect x="678" y="340" width="34" height="28" fill="#24a485"/><rect x="714" y="340" width="34" height="28" fill="#41bc72"/><rect x="750" y="340" width="34" height="28" fill="#88d447"/><rect x="786" y="340" width="34" height="28" fill="#4dc16b"/><rect x="822" y="340" width="34" height="28" fill="#8ad446"/><rect x="858" y="340" width="34" height="28" fill="#32b47b"/><rect x="894" y="340" width="34" height="28" fill="#67cb5c"/><rect x="930" y="340" width="34" height="28" fill="#32b47b"/><rect x="966" y="340" width="34" height="28" fill="#365c8c"/><rect x="570" y="370" width="34" height="28" fill="#413e83"/><rect x="606" y="370" width="34" height="28" fill="#37598c"/><rect x="642" y="370" width="34" height="28" fill="#2c758e"/><rect x="678" y="370" width="34" height="28" fill="#21958b"/><rect x="714" y="370" width="34" height="28" fill="#69cc5b"/><rect x="750" y="370" width="34" height="28" fill="#31b37c"/><rect x="786" y="370" width="34" height="28" fill="#34b57a"/><rect x="822" y="370" width="34" height="28" fill="#2cad7f"/><rect x="858" y="370" width="34" height="28" fill="#5bc663"/><rect x="894" y="370" width="34" height="28" fill="#26a684"/><rect x="930" y="370" width="34" height="28" fill="#287d8e"/><rect x="966" y="370" width="34" height="28" fill="#461364"/><rect x="570" y="400" width="34" height="28" fill="#472171"/><rect x="606" y="400" width="34" height="28" fill="#433780"/><rect x="642" y="400" width="34" height="28" fill="#433880"/><rect x="678" y="400" width="34" height="28" fill="#31678e"/><rect x="714" y="400" width="34" height="28" fill="#57c565"/><rect x="750" y="400" width="34" height="28" fill="#62c95f"/><rect x="786" y="400" width="34" height="28" fill="#34b679"/><rect x="822" y="400" width="34" height="28" fill="#43bd71"/><rect x="858" y="400" width="34" height="28" fill="#238e8c"/><rect x="894" y="400" width="34" height="28" fill="#2a798e"/><rect x="930" y="400" width="34" height="28" fill="#355f8d"/><rect x="966" y="400" width="34" height="28" fill="#440154"/>
  <line x1="570" y1="560" x2="1000" y2="560" stroke="#5a6572" stroke-opacity=".4"/><line x1="570" y1="450" x2="1000" y2="450" stroke="#5a6572" stroke-opacity=".2"/>
  <polyline points="570.0,543.5 580.8,541.3 591.5,539.1 602.3,536.9 613.0,534.7 623.8,532.5 634.5,530.3 645.3,528.1 656.0,525.9 666.8,523.7 677.5,521.5 688.3,519.3 699.0,517.1 709.8,514.9 720.5,512.7 731.3,510.5 742.0,508.3 752.8,507.2 763.5,505.0 774.3,502.8 785.0,500.6 795.8,498.4 806.5,496.2 817.3,494.0 828.0,491.8 838.8,489.6 849.5,488.5 860.3,486.3 871.0,484.1 881.8,481.9 892.5,479.7 903.3,477.5 914.0,476.4 924.8,474.2 935.5,472.0 946.3,469.8 957.0,467.6 967.8,466.5 978.5,464.3 989.3,462.1 1000.0,459.9" fill="none" stroke="#14181f" stroke-width="3"/>
  <text x="1004" y="456" font-family="'Avenir Next', Avenir, 'Segoe UI', Arial, sans-serif" font-size="14" fill="#5a6572">L* 100</text>
  <rect x="570" y="590" width="10.5" height="22" fill="#440154"/><rect x="580" y="590" width="10.5" height="22" fill="#45095c"/><rect x="590" y="590" width="10.5" height="22" fill="#461263"/><rect x="600" y="590" width="10.5" height="22" fill="#471a6b"/><rect x="610" y="590" width="10.5" height="22" fill="#472273"/><rect x="620" y="590" width="10.5" height="22" fill="#472a79"/><rect x="630" y="590" width="10.5" height="22" fill="#45317d"/><rect x="640" y="590" width="10.5" height="22" fill="#433981"/><rect x="650" y="590" width="10.5" height="22" fill="#414084"/><rect x="660" y="590" width="10.5" height="22" fill="#3f4788"/><rect x="670" y="590" width="10.5" height="22" fill="#3c4d8a"/><rect x="680" y="590" width="10.5" height="22" fill="#39548b"/><rect x="690" y="590" width="10.5" height="22" fill="#375b8c"/><rect x="700" y="590" width="10.5" height="22" fill="#34618d"/><rect x="710" y="590" width="10.5" height="22" fill="#31688e"/><rect x="720" y="590" width="10.5" height="22" fill="#2f6e8e"/><rect x="730" y="590" width="10.5" height="22" fill="#2c738e"/><rect x="740" y="590" width="10.5" height="22" fill="#2a798e"/><rect x="750" y="590" width="10.5" height="22" fill="#287e8e"/><rect x="760" y="590" width="10.5" height="22" fill="#26848e"/><rect x="770" y="590" width="10.5" height="22" fill="#248a8d"/><rect x="780" y="590" width="10.5" height="22" fill="#23908c"/><rect x="790" y="590" width="10.5" height="22" fill="#21968a"/><rect x="800" y="590" width="10.5" height="22" fill="#209c89"/><rect x="810" y="590" width="10.5" height="22" fill="#22a287"/><rect x="820" y="590" width="10.5" height="22" fill="#27a783"/><rect x="830" y="590" width="10.5" height="22" fill="#2cac80"/><rect x="840" y="590" width="10.5" height="22" fill="#30b27c"/><rect x="850" y="590" width="10.5" height="22" fill="#35b779"/><rect x="860" y="590" width="10.5" height="22" fill="#41bc72"/><rect x="870" y="590" width="10.5" height="22" fill="#4dc16b"/><rect x="880" y="590" width="10.5" height="22" fill="#5ac664"/><rect x="890" y="590" width="10.5" height="22" fill="#66cb5d"/><rect x="900" y="590" width="10.5" height="22" fill="#73cf55"/><rect x="910" y="590" width="10.5" height="22" fill="#82d34b"/><rect x="920" y="590" width="10.5" height="22" fill="#92d642"/><rect x="930" y="590" width="10.5" height="22" fill="#a1d938"/><rect x="940" y="590" width="10.5" height="22" fill="#b0dd2e"/><rect x="950" y="590" width="10.5" height="22" fill="#bfdf2a"/><rect x="960" y="590" width="10.5" height="22" fill="#cfe129"/><rect x="970" y="590" width="10.5" height="22" fill="#dee328"/><rect x="980" y="590" width="10.5" height="22" fill="#eee526"/><rect x="990" y="590" width="10.5" height="22" fill="#fde725"/>
  <text x="570" y="660" font-family="'Avenir Next', Avenir, 'Segoe UI', Arial, sans-serif" font-size="20" fill="#14181f"><tspan font-weight="700" fill="#0c3354">✓</tspan>  Lightness climbs steadily, so order</text>
  <text x="596" y="688" font-family="'Avenir Next', Avenir, 'Segoe UI', Arial, sans-serif" font-size="20" fill="#14181f">survives greyscale and colour blindness</text>
  <text x="1060" y="200" font-family="'Iowan Old Style', 'Palatino Linotype', Palatino, Georgia, serif" font-size="34" fill="#14181f">Turbo</text>
  <rect x="1060" y="220" width="34" height="28" fill="#20e0b9"/><rect x="1096" y="220" width="34" height="28" fill="#acf93a"/><rect x="1132" y="220" width="34" height="28" fill="#d6e335"/><rect x="1168" y="220" width="34" height="28" fill="#aef739"/><rect x="1204" y="220" width="34" height="28" fill="#d3e634"/><rect x="1240" y="220" width="34" height="28" fill="#e64e0e"/><rect x="1276" y="220" width="34" height="28" fill="#f46717"/><rect x="1312" y="220" width="34" height="28" fill="#f46616"/><rect x="1348" y="220" width="34" height="28" fill="#fca430"/><rect x="1384" y="220" width="34" height="28" fill="#f6bb37"/><rect x="1420" y="220" width="34" height="28" fill="#f0c93a"/><rect x="1456" y="220" width="34" height="28" fill="#24eba8"/><rect x="1060" y="250" width="34" height="28" fill="#38f193"/><rect x="1096" y="250" width="34" height="28" fill="#d4e535"/><rect x="1132" y="250" width="34" height="28" fill="#a7fb3b"/><rect x="1168" y="250" width="34" height="28" fill="#e7d238"/><rect x="1204" y="250" width="34" height="28" fill="#e3d637"/><rect x="1240" y="250" width="34" height="28" fill="#991001"/><rect x="1276" y="250" width="34" height="28" fill="#c42803"/><rect x="1312" y="250" width="34" height="28" fill="#b11901"/><rect x="1348" y="250" width="34" height="28" fill="#c02503"/><rect x="1384" y="250" width="34" height="28" fill="#f36315"/><rect x="1420" y="250" width="34" height="28" fill="#fba831"/><rect x="1456" y="250" width="34" height="28" fill="#42f489"/><rect x="1060" y="280" width="34" height="28" fill="#9cfc41"/><rect x="1096" y="280" width="34" height="28" fill="#a0fc3e"/><rect x="1132" y="280" width="34" height="28" fill="#fba630"/><rect x="1168" y="280" width="34" height="28" fill="#f4c239"/><rect x="1204" y="280" width="34" height="28" fill="#e7500e"/><rect x="1240" y="280" width="34" height="28" fill="#810702"/><rect x="1276" y="280" width="34" height="28" fill="#7a0402"/><rect x="1312" y="280" width="34" height="28" fill="#a81601"/><rect x="1348" y="280" width="34" height="28" fill="#d63606"/><rect x="1384" y="280" width="34" height="28" fill="#b61d02"/><rect x="1420" y="280" width="34" height="28" fill="#fa8925"/><rect x="1456" y="280" width="34" height="28" fill="#d2e734"/><rect x="1060" y="310" width="34" height="28" fill="#5dfb70"/><rect x="1096" y="310" width="34" height="28" fill="#3bf290"/><rect x="1132" y="310" width="34" height="28" fill="#e2d737"/><rect x="1168" y="310" width="34" height="28" fill="#f6bc37"/><rect x="1204" y="310" width="34" height="28" fill="#da3a07"/><rect x="1240" y="310" width="34" height="28" fill="#960f01"/><rect x="1276" y="310" width="34" height="28" fill="#940e02"/><rect x="1312" y="310" width="34" height="28" fill="#dd3f08"/><rect x="1348" y="310" width="34" height="28" fill="#f87a1f"/><rect x="1384" y="310" width="34" height="28" fill="#a91601"/><rect x="1420" y="310" width="34" height="28" fill="#f77a1f"/><rect x="1456" y="310" width="34" height="28" fill="#21e1b7"/><rect x="1060" y="340" width="34" height="28" fill="#27eda4"/><rect x="1096" y="340" width="34" height="28" fill="#52f87a"/><rect x="1132" y="340" width="34" height="28" fill="#4ff77d"/><rect x="1168" y="340" width="34" height="28" fill="#d5e435"/><rect x="1204" y="340" width="34" height="28" fill="#faa931"/><rect x="1240" y="340" width="34" height="28" fill="#e74f0e"/><rect x="1276" y="340" width="34" height="28" fill="#fe9c2d"/><rect x="1312" y="340" width="34" height="28" fill="#e64d0d"/><rect x="1348" y="340" width="34" height="28" fill="#f5c038"/><rect x="1384" y="340" width="34" height="28" fill="#f6741c"/><rect x="1420" y="340" width="34" height="28" fill="#f5c038"/><rect x="1456" y="340" width="34" height="28" fill="#1cd1d1"/><rect x="1060" y="370" width="34" height="28" fill="#3f8ff6"/><rect x="1096" y="370" width="34" height="28" fill="#1ecbd8"/><rect x="1132" y="370" width="34" height="28" fill="#3ef38d"/><rect x="1168" y="370" width="34" height="28" fill="#b2f639"/><rect x="1204" y="370" width="34" height="28" fill="#f6701b"/><rect x="1240" y="370" width="34" height="28" fill="#f4c339"/><rect x="1276" y="370" width="34" height="28" fill="#f6bc37"/><rect x="1312" y="370" width="34" height="28" fill="#e9d038"/><rect x="1348" y="370" width="34" height="28" fill="#fa8724"/><rect x="1384" y="370" width="34" height="28" fill="#dbde36"/><rect x="1420" y="370" width="34" height="28" fill="#5bfa72"/><rect x="1456" y="370" width="34" height="28" fill="#3c3689"/><rect x="1060" y="400" width="34" height="28" fill="#4251bc"/><rect x="1096" y="400" width="34" height="28" fill="#4381f1"/><rect x="1132" y="400" width="34" height="28" fill="#4283f2"/><rect x="1168" y="400" width="34" height="28" fill="#21e1b7"/><rect x="1204" y="400" width="34" height="28" fill="#fb8d27"/><rect x="1240" y="400" width="34" height="28" fill="#f87b1f"/><rect x="1276" y="400" width="34" height="28" fill="#f6ba36"/><rect x="1312" y="400" width="34" height="28" fill="#fba731"/><rect x="1348" y="400" width="34" height="28" fill="#9efc3f"/><rect x="1384" y="400" width="34" height="28" fill="#4ff77d"/><rect x="1420" y="400" width="34" height="28" fill="#1dd5cb"/><rect x="1456" y="400" width="34" height="28" fill="#30123b"/>
  <line x1="1060" y1="560" x2="1490" y2="560" stroke="#5a6572" stroke-opacity=".4"/><line x1="1060" y1="450" x2="1490" y2="450" stroke="#5a6572" stroke-opacity=".2"/>
  <polyline points="1060.0,546.8 1070.8,538.0 1081.5,529.2 1092.3,521.5 1103.0,513.8 1113.8,507.2 1124.5,501.7 1135.3,496.2 1146.0,491.8 1156.8,487.4 1167.5,483.0 1178.3,478.6 1189.0,475.3 1199.8,472.0 1210.5,468.7 1221.3,466.5 1232.0,465.4 1242.8,463.2 1253.5,462.1 1264.3,461.0 1275.0,459.9 1285.8,461.0 1296.5,462.1 1307.3,464.3 1318.0,466.5 1328.8,468.7 1339.5,470.9 1350.3,474.2 1361.0,478.6 1371.8,481.9 1382.5,487.4 1393.3,491.8 1404.0,496.2 1414.8,500.6 1425.5,505.0 1436.3,509.4 1447.0,513.8 1457.8,518.2 1468.5,522.6 1479.3,528.1 1490.0,533.6" fill="none" stroke="#14181f" stroke-width="3"/>
  <text x="1494" y="456" font-family="'Avenir Next', Avenir, 'Segoe UI', Arial, sans-serif" font-size="14" fill="#5a6572">L* 100</text>
  <rect x="1060" y="590" width="10.5" height="22" fill="#30123b"/><rect x="1070" y="590" width="10.5" height="22" fill="#362360"/><rect x="1080" y="590" width="10.5" height="22" fill="#3b3486"/><rect x="1090" y="590" width="10.5" height="22" fill="#4145ab"/><rect x="1100" y="590" width="10.5" height="22" fill="#4355c1"/><rect x="1110" y="590" width="10.5" height="22" fill="#4465d7"/><rect x="1120" y="590" width="10.5" height="22" fill="#4675ed"/><rect x="1130" y="590" width="10.5" height="22" fill="#4284f2"/><rect x="1140" y="590" width="10.5" height="22" fill="#3d93f7"/><rect x="1150" y="590" width="10.5" height="22" fill="#39a2fc"/><rect x="1160" y="590" width="10.5" height="22" fill="#2fb1ef"/><rect x="1170" y="590" width="10.5" height="22" fill="#25c0e1"/><rect x="1180" y="590" width="10.5" height="22" fill="#1bcfd4"/><rect x="1190" y="590" width="10.5" height="22" fill="#1ed9c5"/><rect x="1200" y="590" width="10.5" height="22" fill="#21e2b5"/><rect x="1210" y="590" width="10.5" height="22" fill="#24eca6"/><rect x="1220" y="590" width="10.5" height="22" fill="#38f193"/><rect x="1230" y="590" width="10.5" height="22" fill="#4df77f"/><rect x="1240" y="590" width="10.5" height="22" fill="#61fc6c"/><rect x="1250" y="590" width="10.5" height="22" fill="#77fc5c"/><rect x="1260" y="590" width="10.5" height="22" fill="#8efc4b"/><rect x="1270" y="590" width="10.5" height="22" fill="#a4fc3b"/><rect x="1280" y="590" width="10.5" height="22" fill="#b3f539"/><rect x="1290" y="590" width="10.5" height="22" fill="#c2ef36"/><rect x="1300" y="590" width="10.5" height="22" fill="#d1e834"/><rect x="1310" y="590" width="10.5" height="22" fill="#dcdd36"/><rect x="1320" y="590" width="10.5" height="22" fill="#e8d138"/><rect x="1330" y="590" width="10.5" height="22" fill="#f3c63a"/><rect x="1340" y="590" width="10.5" height="22" fill="#f7b836"/><rect x="1350" y="590" width="10.5" height="22" fill="#faa931"/><rect x="1360" y="590" width="10.5" height="22" fill="#fe9b2d"/><rect x="1370" y="590" width="10.5" height="22" fill="#fa8825"/><rect x="1380" y="590" width="10.5" height="22" fill="#f7761d"/><rect x="1390" y="590" width="10.5" height="22" fill="#f36315"/><rect x="1400" y="590" width="10.5" height="22" fill="#ea5510"/><rect x="1410" y="590" width="10.5" height="22" fill="#e2460b"/><rect x="1420" y="590" width="10.5" height="22" fill="#d93806"/><rect x="1430" y="590" width="10.5" height="22" fill="#cc2e04"/><rect x="1440" y="590" width="10.5" height="22" fill="#be2303"/><rect x="1450" y="590" width="10.5" height="22" fill="#b11901"/><rect x="1460" y="590" width="10.5" height="22" fill="#9f1201"/><rect x="1470" y="590" width="10.5" height="22" fill="#8c0b02"/><rect x="1480" y="590" width="10.5" height="22" fill="#7a0402"/>
  <text x="1060" y="660" font-family="'Avenir Next', Avenir, 'Segoe UI', Arial, sans-serif" font-size="20" fill="#14181f"><tspan font-weight="700" fill="#c8102e">⚠</tspan>  A smoother rainbow with nameable hues,</text>
  <text x="1086" y="688" font-family="'Avenir Next', Avenir, 'Segoe UI', Arial, sans-serif" font-size="20" fill="#14181f">but still dark at both ends</text>
  <text x="80" y="790" font-family="'Avenir Next', Avenir, 'Segoe UI', Arial, sans-serif" font-size="24" fill="#14181f">Borland &amp; Taylor (2007), “Rainbow color map (still) considered harmful” · van der Walt &amp; Smith (2015), viridis · Google (2019), turbo</text>
</svg>
