<svg xmlns="http://www.w3.org/2000/svg" viewBox="0 0 1600 900" width="1600" height="900">
  <rect width="1600" height="900" fill="#fbfaf8"/>
  <text x="80" y="70" font-family="'Avenir Next', Avenir, 'Segoe UI', Arial, sans-serif" font-size="16" font-weight="700" letter-spacing="2.6" fill="#c8102e">STILL TO COME</text>
  <text x="80" y="114" font-family="'Iowan Old Style', 'Palatino Linotype', Palatino, Georgia, serif" font-size="46" fill="#14181f">Then one page</text>
  <text x="60" y="224" text-anchor="end" font-family="'Avenir Next', Avenir, 'Segoe UI', Arial, sans-serif" font-size="11" font-weight="700" letter-spacing="1.4" fill="#5a6572" transform="rotate(-90 60 224)">WHAT YOU WRITE</text><text x="60" y="448" text-anchor="end" font-family="'Avenir Next', Avenir, 'Segoe UI', Arial, sans-serif" font-size="11" font-weight="700" letter-spacing="1.4" fill="#5a6572" transform="rotate(-90 60 448)">WHAT YOU SEE</text><text x="60" y="712" text-anchor="end" font-family="'Avenir Next', Avenir, 'Segoe UI', Arial, sans-serif" font-size="11" font-weight="700" letter-spacing="1.4" fill="#5a6572" transform="rotate(-90 60 712)">WHAT IT MEANS</text>
  <g opacity="1"><rect x="80" y="156" width="44" height="44" rx="22" fill="none" stroke="#5a6572" stroke-width="2"/><text x="102" y="186" text-anchor="middle" font-family="'Avenir Next', Avenir, 'Segoe UI', Arial, sans-serif" font-size="21" font-weight="700" fill="#5a6572">6</text><text x="136" y="184" font-family="'Iowan Old Style', 'Palatino Linotype', Palatino, Georgia, serif" font-size="26" fill="#14181f">Reading week</text><rect x="80" y="218" width="300" height="208" rx="10" fill="none" stroke="#d9d4ca" stroke-width="1.5" stroke-dasharray="7 6"/><text x="96" y="254" font-family="'JetBrains Mono', 'SF Mono', Menlo, Consolas, monospace" font-size="19" fill="#5a6572" style="white-space:pre"># no new code:</text><text x="96" y="283.45" font-family="'JetBrains Mono', 'SF Mono', Menlo, Consolas, monospace" font-size="19" fill="#5a6572" style="white-space:pre"># rebuild one chart</text><text x="96" y="312.9" font-family="'JetBrains Mono', 'SF Mono', Menlo, Consolas, monospace" font-size="19" fill="#5a6572" style="white-space:pre"># from each guide</text><rect x="80" y="442" width="300" height="248" rx="10" fill="none" stroke="#d9d4ca" stroke-width="1.5" stroke-dasharray="7 6"/><g transform="translate(88.0 462.2) scale(1.092)"><rect x="30" y="20" width="200" height="23" rx="11.5" fill="none" stroke="#5a6572" stroke-dasharray="4 4"/><text x="48" y="36" font-family="'Avenir Next', Avenir, 'Segoe UI', Arial, sans-serif" font-size="13" fill="#5a6572">Week 1: rebuild one chart</text><rect x="30" y="51" width="200" height="23" rx="11.5" fill="none" stroke="#5a6572" stroke-dasharray="4 4"/><text x="48" y="67" font-family="'Avenir Next', Avenir, 'Segoe UI', Arial, sans-serif" font-size="13" fill="#5a6572">Week 2: rebuild one chart</text><rect x="30" y="82" width="200" height="23" rx="11.5" fill="none" stroke="#5a6572" stroke-dasharray="4 4"/><text x="48" y="98" font-family="'Avenir Next', Avenir, 'Segoe UI', Arial, sans-serif" font-size="13" fill="#5a6572">Week 3: rebuild one chart</text><rect x="30" y="113" width="200" height="23" rx="11.5" fill="none" stroke="#5a6572" stroke-dasharray="4 4"/><text x="48" y="129" font-family="'Avenir Next', Avenir, 'Segoe UI', Arial, sans-serif" font-size="13" fill="#5a6572">Week 4: rebuild one chart</text><rect x="30" y="144" width="200" height="23" rx="11.5" fill="none" stroke="#5a6572" stroke-dasharray="4 4"/><text x="48" y="160" font-family="'Avenir Next', Avenir, 'Segoe UI', Arial, sans-serif" font-size="13" fill="#5a6572">Week 5: rebuild one chart</text></g><text x="230" y="736" text-anchor="middle" font-family="'Iowan Old Style', 'Palatino Linotype', Palatino, Georgia, serif" font-size="25" fill="#5a6572">Catch up,</text><text x="230" y="768.5" text-anchor="middle" font-family="'Iowan Old Style', 'Palatino Linotype', Palatino, Georgia, serif" font-size="25" fill="#5a6572">consolidate</text><path d="M383 566 h12 m-6 -6 l6 6 l-6 6" fill="none" stroke="#5a6572" stroke-width="2"/></g>
  <g opacity="1"><rect x="402" y="156" width="44" height="44" rx="22" fill="#0c3354" stroke="#0c3354" stroke-width="2"/><text x="424" y="186" text-anchor="middle" font-family="'Avenir Next', Avenir, 'Segoe UI', Arial, sans-serif" font-size="21" font-weight="700" fill="#fff">7</text><text x="458" y="184" font-family="'Iowan Old Style', 'Palatino Linotype', Palatino, Georgia, serif" font-size="26" fill="#14181f">Maps</text><text x="458" y="206" font-family="'Avenir Next', Avenir, 'Segoe UI', Arial, sans-serif" font-size="12" font-weight="700" letter-spacing="1.5" fill="#5a6572">COMING UP</text><rect x="402" y="218" width="420" height="208" rx="10" fill="#f1eee8" stroke="#d9d4ca" stroke-width="1.5"/><text x="418" y="254" font-family="'JetBrains Mono', 'SF Mono', Menlo, Consolas, monospace" font-size="19" fill="#14181f" style="white-space:pre">.mark_geoshape()</text><text x="418" y="283.45" font-family="'JetBrains Mono', 'SF Mono', Menlo, Consolas, monospace" font-size="19" fill="#14181f" style="white-space:pre">.transform_lookup(</text><text x="418" y="312.9" font-family="'JetBrains Mono', 'SF Mono', Menlo, Consolas, monospace" font-size="19" fill="#14181f" style="white-space:pre">  lookup='id', …)</text><text x="418" y="342.35" font-family="'JetBrains Mono', 'SF Mono', Menlo, Consolas, monospace" font-size="19" fill="#14181f" style="white-space:pre">.project('equalEarth')</text><text x="418" y="412" font-family="'Avenir Next', Avenir, 'Segoe UI', Arial, sans-serif" font-size="12" font-weight="700" letter-spacing="1.2" fill="#c8102e">MAPS GUIDE §2–11</text><rect x="402" y="442" width="420" height="248" rx="10" fill="#fff" stroke="#d9d4ca" stroke-width="1.5"/><g transform="translate(453.3 450.0) scale(1.221)"><path d="M30 52 L84 32 L120 60 L110 108 L52 112 Z" transform="translate(12 6)" fill="#9ecae1" stroke="#fff" stroke-width="1.5"/><path d="M124 44 L176 30 L200 74 L158 98 L122 68 Z" transform="translate(12 6)" fill="#3182bd" stroke="#c8102e" stroke-width="3"/><path d="M116 112 L158 96 L192 118 L178 158 L120 152 Z" transform="translate(12 6)" fill="#6baed6" stroke="#fff" stroke-width="1.5"/><path d="M44 118 L108 114 L112 158 L60 164 Z" transform="translate(12 6)" fill="#c6dbef" stroke="#fff" stroke-width="1.5"/><g transform="translate(150 120)"><rect x="3" y="3" width="98" height="40" rx="4" fill="rgba(0,0,0,.18)"/><rect width="98" height="40" rx="4" fill="#fff" stroke="#d9d9d9"/><text x="8" y="17" font-family="'Avenir Next', Avenir, 'Segoe UI', Arial, sans-serif" font-size="11" font-weight="600" fill="#14181f">Bromley</text><text x="8" y="32" font-family="'Avenir Next', Avenir, 'Segoe UI', Arial, sans-serif" font-size="11" fill="#808080">65+: 19.6%</text></g></g><text x="612" y="736" text-anchor="middle" font-family="'Iowan Old Style', 'Palatino Linotype', Palatino, Georgia, serif" font-size="25" fill="#0c3354">Where adds</text><text x="612" y="768.5" text-anchor="middle" font-family="'Iowan Old Style', 'Palatino Linotype', Palatino, Georgia, serif" font-size="25" fill="#0c3354">meaning</text><path d="M825 566 h12 m-6 -6 l6 6 l-6 6" fill="none" stroke="#5a6572" stroke-width="2"/></g>
  <g opacity="1"><rect x="844" y="156" width="44" height="44" rx="22" fill="#c8102e" stroke="#c8102e" stroke-width="2"/><text x="866" y="186" text-anchor="middle" font-family="'Avenir Next', Avenir, 'Segoe UI', Arial, sans-serif" font-size="21" font-weight="700" fill="#fff">★</text><text x="900" y="184" font-family="'Iowan Old Style', 'Palatino Linotype', Palatino, Georgia, serif" font-size="26" fill="#14181f">Final piece · infographic</text><text x="900" y="206" font-family="'Avenir Next', Avenir, 'Segoe UI', Arial, sans-serif" font-size="12" font-weight="700" letter-spacing="1.5" fill="#c8102e">WHERE IT ENDS</text><rect x="844" y="218" width="620" height="208" rx="10" fill="#f1eee8" stroke="#c8102e" stroke-width="2.5"/><text x="860" y="254" font-family="'JetBrains Mono', 'SF Mono', Menlo, Consolas, monospace" font-size="19" fill="#14181f" style="white-space:pre">alt.vconcat(</text><text x="860" y="283.45" font-family="'JetBrains Mono', 'SF Mono', Menlo, Consolas, monospace" font-size="19" fill="#14181f" style="white-space:pre">  tiles,</text><text x="860" y="312.9" font-family="'JetBrains Mono', 'SF Mono', Menlo, Consolas, monospace" font-size="19" fill="#14181f" style="white-space:pre">  bars,</text><text x="860" y="342.35" font-family="'JetBrains Mono', 'SF Mono', Menlo, Consolas, monospace" font-size="19" fill="#14181f" style="white-space:pre">  line | scatter,</text><text x="860" y="371.8" font-family="'JetBrains Mono', 'SF Mono', Menlo, Consolas, monospace" font-size="19" fill="#14181f" style="white-space:pre">  heat | map)</text><text x="860" y="412" font-family="'Avenir Next', Avenir, 'Segoe UI', Arial, sans-serif" font-size="12" font-weight="700" letter-spacing="1.2" fill="#c8102e">INTERACTION GUIDE §15 · COMPOSE</text><rect x="844" y="442" width="620" height="248" rx="10" fill="#fff" stroke="#c8102e" stroke-width="2.5"/><g transform="translate(995.3 450.0) scale(1.221)"><text x="12" y="16" font-family="'Avenir Next', Avenir, 'Segoe UI', Arial, sans-serif" font-size="11" font-weight="700" fill="#14181f">Bike-share use: growth, scale and place</text><rect x="10" y="24" width="76" height="26" rx="3" fill="#f4f1ea" stroke="#d9d4ca"/><text x="16" y="43" font-family="'Avenir Next', Avenir, 'Segoe UI', Arial, sans-serif" font-size="12" font-weight="700" fill="#14181f">+59%</text><circle cx="77" cy="33" r="7.5" fill="#0c3354"/><text x="77" y="37" text-anchor="middle" font-family="'Avenir Next', Avenir, 'Segoe UI', Arial, sans-serif" font-size="10" font-weight="700" fill="#fff">1</text><rect x="92" y="24" width="76" height="26" rx="3" fill="#f4f1ea" stroke="#d9d4ca"/><text x="98" y="43" font-family="'Avenir Next', Avenir, 'Segoe UI', Arial, sans-serif" font-size="12" font-weight="700" fill="#14181f">800</text><circle cx="159" cy="33" r="7.5" fill="#0c3354"/><text x="159" y="37" text-anchor="middle" font-family="'Avenir Next', Avenir, 'Segoe UI', Arial, sans-serif" font-size="10" font-weight="700" fill="#fff">1</text><rect x="174" y="24" width="76" height="26" rx="3" fill="#f4f1ea" stroke="#d9d4ca"/><text x="180" y="43" font-family="'Avenir Next', Avenir, 'Segoe UI', Arial, sans-serif" font-size="12" font-weight="700" fill="#14181f">40k</text><circle cx="241" cy="33" r="7.5" fill="#0c3354"/><text x="241" y="37" text-anchor="middle" font-family="'Avenir Next', Avenir, 'Segoe UI', Arial, sans-serif" font-size="10" font-weight="700" fill="#fff">1</text><rect x="10" y="56" width="240" height="40" rx="3" fill="#f4f1ea" stroke="#d9d4ca"/><rect x="16" y="62" width="174.79999999999998" height="5" fill="#0c3354"/><rect x="16" y="68.6" width="136.79999999999998" height="5" fill="#0c3354"/><rect x="16" y="75.2" width="98.8" height="5" fill="#0c3354"/><rect x="16" y="81.8" width="76" height="5" fill="#0c3354"/><rect x="16" y="88.4" width="60.8" height="5" fill="#0c3354"/><circle cx="241" cy="65" r="7.5" fill="#0c3354"/><text x="241" y="69" text-anchor="middle" font-family="'Avenir Next', Avenir, 'Segoe UI', Arial, sans-serif" font-size="10" font-weight="700" fill="#fff">3</text><rect x="10" y="102" width="116" height="42" rx="3" fill="#f4f1ea" stroke="#d9d4ca"/><path d="M18 136 L42 130" stroke="#0c3354" stroke-width="2" fill="none"/><path d="M72 122 L104 112" stroke="#0c3354" stroke-width="2" fill="none"/><rect x="48" y="106" width="18" height="34" fill="#e2e0db"/><circle cx="117" cy="111" r="7.5" fill="#0c3354"/><text x="117" y="115" text-anchor="middle" font-family="'Avenir Next', Avenir, 'Segoe UI', Arial, sans-serif" font-size="10" font-weight="700" fill="#fff">2</text><rect x="134" y="102" width="116" height="42" rx="3" fill="#f4f1ea" stroke="#d9d4ca"/><circle cx="156.4" cy="132.4" r="3.2" fill="#0c3354"/><circle cx="170.8" cy="128.2" r="3.2" fill="#0c3354"/><circle cx="190" cy="129.6" r="3.2" fill="#0c3354"/><circle cx="201.51999999999998" cy="117" r="3.2" fill="#0c3354"/><circle cx="218.8" cy="122.6" r="3.2" fill="#0c3354"/><circle cx="228.4" cy="126.8" r="3.2" fill="#0c3354"/><circle cx="241" cy="111" r="7.5" fill="#c8102e"/><text x="241" y="115" text-anchor="middle" font-family="'Avenir Next', Avenir, 'Segoe UI', Arial, sans-serif" font-size="10" font-weight="700" fill="#fff">5</text><rect x="10" y="150" width="116" height="36" rx="3" fill="#f4f1ea" stroke="#d9d4ca"/><rect x="16" y="156" width="22" height="7" fill="#eff3ff"/><rect x="40" y="156" width="22" height="7" fill="#c6dbef"/><rect x="64" y="156" width="22" height="7" fill="#9ecae1"/><rect x="88" y="156" width="22" height="7" fill="#6baed6"/><rect x="16" y="165" width="22" height="7" fill="#3182bd"/><rect x="40" y="165" width="22" height="7" fill="#08519c"/><rect x="64" y="165" width="22" height="7" fill="#eff3ff"/><rect x="88" y="165" width="22" height="7" fill="#c6dbef"/><rect x="16" y="174" width="22" height="7" fill="#9ecae1"/><rect x="40" y="174" width="22" height="7" fill="#6baed6"/><rect x="64" y="174" width="22" height="7" fill="#3182bd"/><rect x="88" y="174" width="22" height="7" fill="#08519c"/><circle cx="117" cy="159" r="7.5" fill="#0c3354"/><text x="117" y="163" text-anchor="middle" font-family="'Avenir Next', Avenir, 'Segoe UI', Arial, sans-serif" font-size="10" font-weight="700" fill="#fff">4</text><rect x="134" y="150" width="116" height="36" rx="3" fill="#f4f1ea" stroke="#d9d4ca"/><rect x="142" y="156" width="28" height="11" fill="#9ecae1"/><rect x="172" y="156" width="28" height="11" fill="#08519c"/><rect x="202" y="156" width="28" height="11" fill="#c6dbef"/><rect x="142" y="169" width="28" height="11" fill="#6baed6"/><rect x="172" y="169" width="28" height="11" fill="#3182bd"/><rect x="202" y="169" width="28" height="11" fill="#9ecae1"/><circle cx="241" cy="159" r="7.5" fill="#c8102e"/><text x="241" y="163" text-anchor="middle" font-family="'Avenir Next', Avenir, 'Segoe UI', Arial, sans-serif" font-size="10" font-weight="700" fill="#fff">7</text></g><text x="1154" y="736" text-anchor="middle" font-family="'Iowan Old Style', 'Palatino Linotype', Palatino, Georgia, serif" font-size="25" fill="#c8102e">Every week,</text><text x="1154" y="768.5" text-anchor="middle" font-family="'Iowan Old Style', 'Palatino Linotype', Palatino, Georgia, serif" font-size="25" fill="#c8102e">one page</text></g>
  <text x="80" y="830" font-family="'Avenir Next', Avenir, 'Segoe UI', Arial, sans-serif" font-size="19" fill="#5a6572">Then one page: every week becomes one panel of an infographic. The badges say which week taught each panel.</text>
</svg>
